<svg xmlns="http://www.w3.org/2000/svg" viewBox="0 0 3132 676" width="3132" height="676">
<path fill-rule="evenodd" fill="black" d="M 2774 223 L 2765 224 L 2760 226 L 2754 227 L 2745 227 L 2741 228 L 2738 230 L 2735 231 L 2729 231 L 2722 235 L 2718 235 L 2711 239 L 2709 239 L 2707 240 L 2705 242 L 2703 243 L 2701 243 L 2699 244 L 2696 247 L 2694 247 L 2691 250 L 2688 251 L 2683 255 L 2679 258 L 2662 275 L 2659 279 L 2656 283 L 2655 286 L 2651 290 L 2651 293 L 2648 296 L 2647 298 L 2647 301 L 2643 308 L 2643 314 L 2641 319 L 2640 324 L 2640 337 L 2641 341 L 2643 345 L 2643 350 L 2644 353 L 2647 356 L 2647 358 L 2651 363 L 2656 368 L 2660 371 L 2662 372 L 2664 372 L 2669 375 L 2672 376 L 2689 376 L 2693 375 L 2695 373 L 2697 372 L 2700 372 L 2704 369 L 2707 367 L 2711 363 L 2713 360 L 2716 356 L 2716 353 L 2717 351 L 2719 349 L 2720 345 L 2720 295 L 2721 292 L 2723 289 L 2723 287 L 2724 284 L 2727 281 L 2728 278 L 2732 274 L 2734 272 L 2742 264 L 2744 264 L 2747 261 L 2749 260 L 2751 260 L 2753 259 L 2755 257 L 2758 256 L 2764 256 L 2770 254 L 2774 253 L 2790 253 L 2796 254 L 2802 256 L 2809 256 L 2814 259 L 2816 259 L 2819 260 L 2821 261 L 2823 263 L 2826 264 L 2830 268 L 2833 269 L 2835 272 L 2839 275 L 2843 280 L 2844 283 L 2847 286 L 2847 289 L 2848 291 L 2850 293 L 2851 295 L 2851 299 L 2852 302 L 2854 305 L 2855 308 L 2855 316 L 2856 321 L 2858 326 L 2859 331 L 2860 376 L 2859 378 L 2856 379 L 2853 380 L 2848 383 L 2845 383 L 2842 384 L 2840 386 L 2838 387 L 2834 387 L 2831 388 L 2829 390 L 2827 391 L 2823 391 L 2821 392 L 2819 394 L 2817 395 L 2813 395 L 2806 399 L 2803 399 L 2799 401 L 2797 403 L 2793 403 L 2791 404 L 2789 406 L 2787 407 L 2783 407 L 2781 408 L 2779 410 L 2777 411 L 2774 411 L 2770 413 L 2768 415 L 2765 415 L 2762 416 L 2760 418 L 2758 419 L 2755 419 L 2753 421 L 2749 423 L 2746 423 L 2743 426 L 2741 427 L 2738 427 L 2735 429 L 2733 431 L 2730 431 L 2728 432 L 2726 434 L 2724 435 L 2722 435 L 2719 437 L 2717 439 L 2714 439 L 2711 442 L 2709 443 L 2707 443 L 2704 446 L 2699 448 L 2696 451 L 2694 451 L 2690 455 L 2687 456 L 2683 459 L 2679 462 L 2676 464 L 2669 471 L 2664 475 L 2660 478 L 2658 480 L 2656 482 L 2654 484 L 2651 488 L 2647 492 L 2644 496 L 2642 499 L 2639 503 L 2639 505 L 2636 508 L 2635 510 L 2635 512 L 2634 514 L 2632 516 L 2631 518 L 2631 522 L 2628 527 L 2627 530 L 2627 538 L 2625 544 L 2624 550 L 2624 569 L 2625 575 L 2627 581 L 2627 590 L 2628 593 L 2630 596 L 2631 599 L 2631 603 L 2632 606 L 2634 608 L 2635 610 L 2635 613 L 2638 616 L 2639 618 L 2639 620 L 2642 623 L 2643 626 L 2647 630 L 2648 633 L 2650 635 L 2660 645 L 2665 649 L 2669 652 L 2673 655 L 2675 656 L 2677 656 L 2679 657 L 2682 660 L 2686 660 L 2688 661 L 2690 663 L 2692 664 L 2697 664 L 2701 665 L 2704 667 L 2709 668 L 2744 668 L 2749 667 L 2753 665 L 2756 664 L 2762 664 L 2765 663 L 2767 661 L 2770 660 L 2773 660 L 2777 658 L 2779 656 L 2781 656 L 2783 655 L 2785 653 L 2787 652 L 2789 652 L 2793 648 L 2796 647 L 2799 644 L 2801 644 L 2806 640 L 2810 636 L 2813 635 L 2817 632 L 2821 629 L 2824 627 L 2828 624 L 2832 620 L 2836 617 L 2840 615 L 2844 612 L 2848 608 L 2853 604 L 2858 601 L 2860 603 L 2859 605 L 2860 617 L 2861 620 L 2863 625 L 2863 632 L 2867 639 L 2867 642 L 2869 645 L 2871 647 L 2871 649 L 2881 659 L 2886 661 L 2888 663 L 2890 664 L 2893 664 L 2896 665 L 2898 667 L 2904 668 L 2917 668 L 2923 667 L 2926 665 L 2929 664 L 2934 664 L 2937 663 L 2939 661 L 2941 660 L 2944 660 L 2947 657 L 2949 656 L 2951 656 L 2954 653 L 2957 652 L 2961 649 L 2964 647 L 2968 644 L 2971 641 L 2976 637 L 2992 621 L 2996 616 L 3000 611 L 3005 605 L 3009 600 L 3011 597 L 3009 572 L 3007 574 L 3003 577 L 3001 579 L 2999 581 L 2997 583 L 2995 585 L 2993 587 L 2987 591 L 2985 594 L 2979 599 L 2974 603 L 2971 604 L 2969 606 L 2966 607 L 2954 607 L 2952 606 L 2948 603 L 2944 599 L 2943 596 L 2943 594 L 2941 591 L 2940 588 L 2939 571 L 2938 545 L 2938 349 L 2937 331 L 2936 312 L 2935 306 L 2933 302 L 2932 298 L 2932 292 L 2928 285 L 2928 282 L 2925 279 L 2924 277 L 2924 275 L 2921 272 L 2920 269 L 2916 264 L 2903 251 L 2898 247 L 2895 246 L 2892 243 L 2890 243 L 2888 242 L 2886 240 L 2884 239 L 2881 239 L 2879 238 L 2877 236 L 2874 235 L 2871 235 L 2866 232 L 2863 231 L 2858 231 L 2855 230 L 2852 228 L 2848 227 L 2838 227 L 2833 226 L 2828 224 L 2819 223 Z M 2856 409 L 2859 410 L 2860 564 L 2859 567 L 2855 571 L 2850 575 L 2845 579 L 2842 580 L 2840 582 L 2838 583 L 2835 586 L 2833 587 L 2830 588 L 2827 591 L 2824 592 L 2821 595 L 2819 595 L 2817 596 L 2814 599 L 2812 599 L 2810 600 L 2808 602 L 2806 603 L 2803 603 L 2801 604 L 2799 606 L 2797 607 L 2793 608 L 2790 608 L 2788 610 L 2785 611 L 2777 612 L 2759 612 L 2751 611 L 2744 607 L 2742 607 L 2740 606 L 2737 603 L 2735 603 L 2730 599 L 2720 589 L 2717 585 L 2716 582 L 2713 579 L 2712 577 L 2712 575 L 2710 573 L 2708 569 L 2708 565 L 2707 562 L 2705 560 L 2704 557 L 2703 544 L 2703 532 L 2704 519 L 2705 516 L 2707 513 L 2708 510 L 2708 506 L 2710 503 L 2712 501 L 2712 498 L 2715 495 L 2716 492 L 2719 489 L 2720 486 L 2738 468 L 2743 464 L 2745 464 L 2749 460 L 2754 456 L 2756 456 L 2758 455 L 2761 452 L 2764 451 L 2766 449 L 2771 447 L 2773 445 L 2775 444 L 2777 444 L 2779 443 L 2781 441 L 2783 440 L 2786 440 L 2788 439 L 2790 437 L 2792 436 L 2795 435 L 2797 435 L 2799 433 L 2801 432 L 2804 432 L 2806 431 L 2808 429 L 2810 428 L 2813 428 L 2815 427 L 2817 425 L 2819 424 L 2822 424 L 2825 423 L 2827 421 L 2829 420 L 2833 420 L 2835 418 L 2839 416 L 2842 416 L 2845 415 L 2847 413 L 2849 412 L 2852 412 L 2854 411 Z M 2455 223 L 2454 224 L 2453 224 L 2451 226 L 2449 227 L 2446 227 L 2443 228 L 2441 230 L 2439 231 L 2436 231 L 2434 232 L 2432 234 L 2430 235 L 2426 235 L 2424 236 L 2422 238 L 2420 239 L 2416 239 L 2414 240 L 2412 242 L 2410 243 L 2406 243 L 2404 244 L 2402 246 L 2400 247 L 2397 247 L 2390 251 L 2387 251 L 2385 252 L 2383 254 L 2381 255 L 2377 255 L 2375 256 L 2373 258 L 2371 259 L 2367 259 L 2365 260 L 2363 262 L 2361 263 L 2358 263 L 2355 264 L 2353 266 L 2351 267 L 2348 267 L 2341 271 L 2338 271 L 2334 273 L 2331 275 L 2330 277 L 2330 279 L 2331 283 L 2332 285 L 2334 287 L 2334 289 L 2335 291 L 2337 293 L 2339 293 L 2345 292 L 2350 289 L 2353 288 L 2366 287 L 2371 287 L 2379 288 L 2381 289 L 2383 291 L 2386 292 L 2388 294 L 2391 298 L 2391 300 L 2392 302 L 2394 304 L 2395 306 L 2396 313 L 2396 318 L 2398 323 L 2399 331 L 2400 409 L 2400 558 L 2399 598 L 2398 603 L 2397 606 L 2396 610 L 2395 615 L 2394 617 L 2392 619 L 2390 624 L 2386 628 L 2384 630 L 2380 634 L 2376 636 L 2374 636 L 2372 638 L 2369 639 L 2359 640 L 2348 640 L 2338 641 L 2336 643 L 2335 645 L 2335 657 L 2336 659 L 2338 660 L 2540 660 L 2542 659 L 2543 644 L 2541 642 L 2539 641 L 2530 640 L 2520 640 L 2510 639 L 2507 638 L 2505 636 L 2503 636 L 2500 635 L 2495 631 L 2488 624 L 2488 622 L 2485 619 L 2484 617 L 2483 613 L 2483 611 L 2481 608 L 2480 604 L 2479 589 L 2479 226 L 2476 223 Z M 2092 223 L 2091 224 L 2090 224 L 2088 226 L 2085 227 L 2082 227 L 2080 228 L 2078 230 L 2076 231 L 2073 231 L 2070 232 L 2068 234 L 2066 235 L 2062 235 L 2060 236 L 2058 238 L 2056 239 L 2053 239 L 2050 240 L 2048 242 L 2046 243 L 2042 243 L 2040 245 L 2036 247 L 2033 247 L 2026 251 L 2023 251 L 2021 252 L 2019 254 L 2017 255 L 2013 255 L 2011 256 L 2009 258 L 2007 259 L 2003 259 L 2001 260 L 1999 262 L 1997 263 L 1993 263 L 1991 264 L 1989 266 L 1987 267 L 1984 267 L 1981 268 L 1979 270 L 1977 271 L 1974 271 L 1971 272 L 1968 274 L 1966 279 L 1967 282 L 1967 288 L 1968 290 L 1969 292 L 1978 292 L 1981 291 L 1984 289 L 1987 288 L 1999 287 L 2005 287 L 2013 288 L 2016 289 L 2019 292 L 2021 292 L 2027 298 L 2027 300 L 2030 303 L 2031 305 L 2032 310 L 2032 314 L 2034 318 L 2035 328 L 2035 603 L 2034 607 L 2032 610 L 2032 612 L 2031 616 L 2030 618 L 2028 621 L 2026 624 L 2024 626 L 2022 628 L 2020 630 L 2015 632 L 2012 635 L 2008 636 L 2006 636 L 2003 638 L 2000 639 L 1990 640 L 1980 640 L 1973 641 L 1971 642 L 1970 658 L 1972 660 L 2185 660 L 2187 659 L 2188 657 L 2188 644 L 2187 642 L 2185 641 L 2177 640 L 2168 640 L 2158 639 L 2155 638 L 2152 636 L 2150 636 L 2146 635 L 2144 634 L 2141 631 L 2139 631 L 2135 628 L 2125 618 L 2124 616 L 2124 614 L 2122 612 L 2120 608 L 2120 604 L 2119 601 L 2117 598 L 2116 594 L 2115 582 L 2114 569 L 2114 359 L 2115 356 L 2116 353 L 2117 351 L 2120 348 L 2120 346 L 2121 344 L 2124 341 L 2124 338 L 2127 335 L 2128 332 L 2131 329 L 2132 326 L 2133 324 L 2136 321 L 2137 318 L 2140 314 L 2144 309 L 2153 299 L 2155 297 L 2161 292 L 2164 291 L 2167 288 L 2180 288 L 2182 289 L 2184 291 L 2186 292 L 2188 292 L 2192 295 L 2195 297 L 2199 300 L 2203 304 L 2206 305 L 2209 308 L 2213 311 L 2220 314 L 2222 316 L 2226 317 L 2228 317 L 2231 319 L 2235 320 L 2243 320 L 2248 319 L 2253 316 L 2256 316 L 2258 315 L 2262 312 L 2272 302 L 2275 298 L 2276 296 L 2276 293 L 2277 291 L 2279 289 L 2280 285 L 2280 266 L 2279 263 L 2276 258 L 2276 255 L 2275 253 L 2272 250 L 2271 247 L 2269 245 L 2259 235 L 2255 232 L 2250 230 L 2248 228 L 2246 227 L 2242 227 L 2239 226 L 2237 224 L 2232 223 L 2211 223 L 2207 224 L 2204 226 L 2201 227 L 2197 227 L 2191 230 L 2188 231 L 2186 232 L 2185 234 L 2183 235 L 2181 235 L 2177 239 L 2174 240 L 2172 242 L 2170 243 L 2162 251 L 2160 253 L 2157 256 L 2155 258 L 2147 266 L 2143 271 L 2140 275 L 2136 280 L 2135 283 L 2131 287 L 2131 289 L 2128 292 L 2127 295 L 2124 298 L 2122 303 L 2120 305 L 2119 308 L 2116 311 L 2114 309 L 2113 224 L 2111 223 Z M 1694 223 L 1685 224 L 1680 225 L 1674 227 L 1665 227 L 1661 228 L 1658 229 L 1655 231 L 1649 231 L 1646 232 L 1644 234 L 1641 235 L 1637 235 L 1635 236 L 1633 238 L 1631 239 L 1628 239 L 1626 240 L 1624 242 L 1619 244 L 1617 246 L 1612 248 L 1609 251 L 1606 252 L 1604 254 L 1602 255 L 1596 260 L 1594 263 L 1584 272 L 1579 278 L 1576 282 L 1575 285 L 1572 288 L 1570 293 L 1568 295 L 1567 297 L 1567 300 L 1566 302 L 1564 304 L 1563 306 L 1563 312 L 1562 315 L 1560 318 L 1559 328 L 1559 333 L 1560 341 L 1561 344 L 1563 348 L 1563 352 L 1564 354 L 1567 357 L 1567 359 L 1571 363 L 1578 369 L 1581 372 L 1584 373 L 1586 373 L 1588 375 L 1591 376 L 1609 376 L 1612 375 L 1614 373 L 1616 373 L 1619 372 L 1621 371 L 1625 368 L 1632 361 L 1633 358 L 1635 356 L 1636 354 L 1637 351 L 1637 349 L 1639 346 L 1640 343 L 1640 292 L 1641 290 L 1643 288 L 1643 286 L 1644 283 L 1647 280 L 1648 277 L 1658 267 L 1662 264 L 1665 263 L 1666 261 L 1668 260 L 1671 259 L 1673 259 L 1675 257 L 1677 256 L 1683 256 L 1689 254 L 1694 253 L 1709 253 L 1716 254 L 1722 256 L 1728 256 L 1731 257 L 1733 259 L 1735 259 L 1738 260 L 1740 261 L 1742 263 L 1744 264 L 1746 264 L 1752 269 L 1759 276 L 1763 281 L 1764 284 L 1767 287 L 1767 290 L 1768 292 L 1770 294 L 1771 297 L 1771 301 L 1772 304 L 1774 307 L 1775 310 L 1775 319 L 1776 325 L 1778 330 L 1779 339 L 1778 379 L 1775 379 L 1772 380 L 1770 382 L 1768 383 L 1764 383 L 1757 387 L 1753 387 L 1751 388 L 1749 390 L 1746 391 L 1742 391 L 1740 392 L 1738 394 L 1736 395 L 1733 395 L 1730 396 L 1728 398 L 1726 399 L 1722 399 L 1720 400 L 1718 402 L 1716 403 L 1713 403 L 1710 404 L 1708 406 L 1706 407 L 1702 407 L 1700 409 L 1696 411 L 1693 411 L 1691 412 L 1689 414 L 1687 415 L 1684 415 L 1682 416 L 1680 418 L 1678 419 L 1675 419 L 1673 420 L 1671 422 L 1669 423 L 1666 423 L 1664 424 L 1662 426 L 1660 427 L 1658 427 L 1656 428 L 1654 430 L 1652 431 L 1649 431 L 1646 433 L 1644 435 L 1642 435 L 1640 436 L 1638 438 L 1636 439 L 1634 439 L 1632 440 L 1629 443 L 1627 443 L 1625 444 L 1622 447 L 1619 448 L 1617 450 L 1614 451 L 1611 454 L 1608 455 L 1605 458 L 1602 459 L 1597 463 L 1592 467 L 1587 471 L 1578 479 L 1575 482 L 1568 490 L 1564 495 L 1563 498 L 1559 502 L 1559 504 L 1556 507 L 1555 509 L 1555 511 L 1554 513 L 1552 515 L 1551 517 L 1551 520 L 1550 523 L 1548 525 L 1547 528 L 1547 535 L 1545 540 L 1544 543 L 1543 553 L 1543 564 L 1544 575 L 1545 579 L 1547 585 L 1547 592 L 1548 596 L 1550 598 L 1551 601 L 1551 605 L 1552 607 L 1554 609 L 1555 611 L 1555 614 L 1557 617 L 1559 619 L 1559 621 L 1562 624 L 1563 627 L 1567 632 L 1570 636 L 1578 644 L 1583 648 L 1587 651 L 1590 653 L 1594 656 L 1596 656 L 1598 657 L 1600 659 L 1602 660 L 1605 660 L 1607 661 L 1609 663 L 1611 664 L 1617 664 L 1620 665 L 1623 667 L 1628 668 L 1664 668 L 1669 667 L 1672 666 L 1676 664 L 1681 664 L 1684 663 L 1689 660 L 1693 660 L 1695 658 L 1699 656 L 1701 656 L 1704 654 L 1706 652 L 1708 652 L 1712 649 L 1714 647 L 1718 644 L 1720 644 L 1724 641 L 1727 639 L 1731 636 L 1734 633 L 1737 632 L 1742 628 L 1746 624 L 1750 621 L 1753 620 L 1758 616 L 1762 612 L 1766 609 L 1769 608 L 1779 601 L 1779 613 L 1780 621 L 1782 624 L 1783 628 L 1783 634 L 1787 641 L 1787 643 L 1788 645 L 1791 648 L 1792 651 L 1795 653 L 1797 656 L 1802 660 L 1804 660 L 1807 663 L 1809 664 L 1813 665 L 1815 665 L 1818 667 L 1823 668 L 1836 668 L 1842 667 L 1845 666 L 1849 664 L 1853 664 L 1856 663 L 1858 661 L 1860 660 L 1862 660 L 1865 659 L 1868 656 L 1870 656 L 1872 655 L 1875 652 L 1877 652 L 1882 648 L 1887 644 L 1892 640 L 1901 632 L 1912 620 L 1916 614 L 1923 607 L 1928 601 L 1930 597 L 1931 576 L 1931 574 L 1929 572 L 1927 573 L 1923 575 L 1915 583 L 1912 587 L 1910 589 L 1908 590 L 1903 595 L 1897 600 L 1893 603 L 1890 604 L 1888 606 L 1886 607 L 1873 607 L 1871 606 L 1867 603 L 1864 600 L 1863 597 L 1863 595 L 1861 593 L 1860 590 L 1859 580 L 1858 566 L 1857 548 L 1857 344 L 1856 317 L 1855 310 L 1854 306 L 1852 301 L 1852 294 L 1851 291 L 1849 289 L 1848 287 L 1848 284 L 1847 282 L 1845 280 L 1843 275 L 1841 273 L 1840 270 L 1836 265 L 1832 261 L 1830 259 L 1828 257 L 1826 255 L 1821 250 L 1817 247 L 1815 246 L 1813 244 L 1811 243 L 1809 243 L 1807 242 L 1805 240 L 1803 239 L 1801 239 L 1799 238 L 1797 236 L 1794 235 L 1790 235 L 1783 231 L 1777 231 L 1774 230 L 1771 228 L 1767 227 L 1758 227 L 1752 225 L 1748 224 L 1738 223 Z M 1775 409 L 1779 410 L 1779 566 L 1778 568 L 1776 570 L 1771 574 L 1768 576 L 1764 579 L 1760 582 L 1757 584 L 1753 587 L 1751 587 L 1748 590 L 1745 591 L 1742 594 L 1740 595 L 1738 595 L 1735 598 L 1733 599 L 1731 599 L 1729 600 L 1727 602 L 1725 603 L 1722 603 L 1720 605 L 1716 607 L 1712 608 L 1710 608 L 1705 611 L 1697 612 L 1678 612 L 1670 611 L 1668 610 L 1666 608 L 1664 607 L 1661 607 L 1658 604 L 1656 603 L 1654 603 L 1652 600 L 1636 585 L 1636 583 L 1633 580 L 1632 578 L 1631 574 L 1628 571 L 1628 567 L 1627 564 L 1624 559 L 1623 549 L 1623 526 L 1624 517 L 1625 514 L 1628 509 L 1628 505 L 1629 503 L 1631 501 L 1632 499 L 1632 497 L 1636 493 L 1636 491 L 1639 487 L 1643 482 L 1653 472 L 1660 467 L 1664 464 L 1667 461 L 1670 459 L 1674 456 L 1676 456 L 1679 453 L 1684 451 L 1687 448 L 1689 448 L 1691 447 L 1694 444 L 1697 444 L 1699 442 L 1702 440 L 1705 440 L 1707 439 L 1709 437 L 1711 436 L 1714 436 L 1716 435 L 1718 433 L 1720 432 L 1723 432 L 1725 431 L 1727 429 L 1729 428 L 1733 428 L 1735 426 L 1739 424 L 1742 424 L 1744 423 L 1746 421 L 1749 420 L 1752 420 L 1754 419 L 1756 417 L 1758 416 L 1761 416 L 1764 415 L 1766 413 L 1768 412 L 1772 412 L 1774 411 Z M 770 223 L 769 224 L 763 227 L 760 227 L 758 228 L 756 230 L 754 231 L 750 231 L 748 232 L 746 234 L 744 235 L 741 235 L 738 236 L 736 238 L 734 239 L 730 239 L 728 241 L 724 243 L 721 243 L 719 244 L 717 246 L 714 247 L 711 247 L 709 248 L 707 250 L 705 251 L 701 251 L 699 252 L 697 254 L 695 255 L 692 255 L 685 259 L 682 259 L 679 260 L 677 262 L 675 263 L 672 263 L 670 264 L 668 266 L 665 267 L 662 267 L 660 268 L 658 270 L 656 271 L 653 271 L 650 272 L 648 274 L 645 275 L 644 279 L 646 281 L 647 283 L 647 287 L 649 291 L 653 293 L 658 292 L 661 291 L 664 290 L 667 288 L 679 287 L 685 287 L 694 288 L 696 289 L 700 292 L 703 295 L 706 299 L 707 301 L 707 304 L 710 309 L 711 312 L 711 325 L 713 337 L 714 348 L 715 374 L 715 577 L 714 590 L 713 596 L 711 603 L 711 610 L 710 613 L 708 615 L 708 617 L 707 620 L 704 623 L 703 626 L 697 632 L 693 635 L 691 635 L 684 639 L 673 640 L 662 640 L 653 641 L 651 643 L 650 646 L 650 648 L 651 659 L 653 660 L 854 660 L 856 659 L 857 657 L 857 645 L 856 643 L 854 641 L 845 640 L 835 640 L 824 639 L 817 635 L 814 635 L 809 631 L 807 628 L 804 626 L 803 623 L 800 620 L 799 617 L 799 615 L 797 613 L 796 611 L 796 603 L 794 596 L 793 590 L 792 576 L 792 224 L 790 223 Z M 988 33 L 987 35 L 986 44 L 986 52 L 984 59 L 983 70 L 983 91 L 982 100 L 980 107 L 979 117 L 979 139 L 978 147 L 976 154 L 975 165 L 976 191 L 978 192 L 980 192 L 987 192 L 989 192 L 991 191 L 993 189 L 993 187 L 995 184 L 996 179 L 996 170 L 997 167 L 999 164 L 1000 160 L 1000 152 L 1003 147 L 1004 144 L 1004 138 L 1007 133 L 1008 130 L 1008 126 L 1009 124 L 1011 122 L 1012 120 L 1012 117 L 1015 114 L 1016 112 L 1016 110 L 1020 105 L 1033 92 L 1038 88 L 1040 88 L 1043 85 L 1045 84 L 1047 84 L 1049 83 L 1051 81 L 1053 80 L 1057 80 L 1061 79 L 1063 77 L 1066 76 L 1075 76 L 1081 75 L 1087 73 L 1096 72 L 1317 73 L 1317 75 L 1314 79 L 1311 82 L 1307 87 L 1307 89 L 1304 93 L 1302 95 L 1299 99 L 1298 101 L 1296 103 L 1295 106 L 1291 110 L 1290 113 L 1287 116 L 1284 120 L 1283 123 L 1279 127 L 1279 129 L 1275 133 L 1272 137 L 1271 140 L 1268 143 L 1266 147 L 1263 150 L 1262 152 L 1260 154 L 1259 157 L 1256 160 L 1254 163 L 1251 167 L 1251 169 L 1247 174 L 1243 178 L 1243 180 L 1240 184 L 1238 187 L 1235 190 L 1232 194 L 1231 197 L 1228 200 L 1226 204 L 1223 207 L 1222 210 L 1219 214 L 1215 218 L 1215 220 L 1212 224 L 1210 227 L 1207 230 L 1204 234 L 1203 237 L 1200 240 L 1198 244 L 1195 247 L 1194 249 L 1192 251 L 1191 254 L 1187 258 L 1187 260 L 1183 264 L 1182 266 L 1180 268 L 1179 271 L 1175 275 L 1175 277 L 1171 281 L 1170 284 L 1167 288 L 1164 291 L 1163 294 L 1159 298 L 1158 301 L 1155 305 L 1152 308 L 1150 311 L 1147 315 L 1147 317 L 1143 321 L 1139 326 L 1139 328 L 1136 331 L 1135 334 L 1131 338 L 1130 340 L 1128 342 L 1127 345 L 1124 348 L 1122 351 L 1119 355 L 1118 358 L 1111 366 L 1111 368 L 1108 372 L 1106 374 L 1103 378 L 1102 380 L 1100 382 L 1099 385 L 1096 388 L 1094 391 L 1091 395 L 1090 398 L 1087 402 L 1083 406 L 1083 408 L 1079 412 L 1078 415 L 1075 419 L 1071 423 L 1071 425 L 1067 429 L 1066 432 L 1063 436 L 1060 439 L 1059 442 L 1055 446 L 1054 449 L 1051 452 L 1048 456 L 1047 459 L 1043 463 L 1043 465 L 1039 469 L 1035 474 L 1035 476 L 1032 479 L 1031 482 L 1027 486 L 1026 489 L 1023 493 L 1020 496 L 1018 499 L 1015 503 L 1015 505 L 1011 509 L 1007 514 L 1007 516 L 1004 520 L 1002 522 L 999 526 L 998 528 L 996 530 L 995 533 L 992 536 L 990 539 L 987 543 L 986 546 L 983 550 L 979 554 L 979 556 L 976 560 L 974 563 L 971 566 L 968 570 L 967 573 L 964 576 L 962 580 L 959 584 L 956 587 L 955 590 L 951 594 L 951 596 L 947 600 L 945 604 L 943 607 L 939 611 L 939 613 L 936 617 L 932 621 L 931 624 L 928 627 L 927 630 L 923 634 L 922 637 L 919 640 L 918 646 L 918 652 L 919 657 L 920 660 L 1426 660 L 1428 659 L 1429 657 L 1429 654 L 1431 650 L 1432 646 L 1432 636 L 1433 632 L 1435 628 L 1436 623 L 1436 614 L 1437 610 L 1439 605 L 1440 601 L 1440 591 L 1441 587 L 1443 583 L 1444 578 L 1444 568 L 1445 565 L 1447 561 L 1448 556 L 1448 546 L 1449 542 L 1451 538 L 1452 533 L 1452 523 L 1453 520 L 1455 516 L 1456 510 L 1457 500 L 1456 492 L 1453 491 L 1442 491 L 1440 492 L 1439 494 L 1439 499 L 1438 502 L 1436 504 L 1435 506 L 1435 511 L 1434 513 L 1432 515 L 1431 518 L 1431 522 L 1430 524 L 1428 526 L 1427 528 L 1427 532 L 1426 534 L 1424 536 L 1423 538 L 1423 541 L 1422 543 L 1419 546 L 1419 549 L 1418 551 L 1415 554 L 1415 557 L 1413 560 L 1411 562 L 1411 564 L 1408 567 L 1406 572 L 1403 576 L 1400 580 L 1395 586 L 1388 592 L 1381 599 L 1379 599 L 1376 602 L 1371 604 L 1369 606 L 1367 607 L 1364 608 L 1362 608 L 1360 610 L 1358 611 L 1354 611 L 1351 612 L 1349 614 L 1346 615 L 1339 615 L 1335 616 L 1332 618 L 1328 619 L 1308 620 L 1045 620 L 1044 615 L 1048 611 L 1049 608 L 1052 605 L 1055 601 L 1056 598 L 1060 594 L 1061 591 L 1064 588 L 1067 584 L 1068 581 L 1072 577 L 1073 574 L 1076 571 L 1077 568 L 1080 564 L 1083 561 L 1084 558 L 1087 554 L 1089 551 L 1092 548 L 1095 544 L 1096 541 L 1100 537 L 1100 535 L 1104 531 L 1107 527 L 1108 524 L 1112 520 L 1112 518 L 1116 514 L 1117 511 L 1120 508 L 1121 506 L 1123 504 L 1124 501 L 1128 497 L 1129 494 L 1132 491 L 1135 487 L 1136 484 L 1140 480 L 1140 478 L 1144 474 L 1147 470 L 1148 467 L 1151 464 L 1152 461 L 1156 457 L 1157 454 L 1160 451 L 1163 447 L 1164 444 L 1168 440 L 1168 438 L 1172 434 L 1173 431 L 1176 427 L 1179 424 L 1180 421 L 1184 417 L 1185 414 L 1188 411 L 1191 407 L 1192 404 L 1196 400 L 1196 398 L 1200 394 L 1203 390 L 1204 387 L 1207 384 L 1208 381 L 1212 377 L 1213 374 L 1216 370 L 1219 367 L 1221 364 L 1224 360 L 1224 358 L 1228 354 L 1231 350 L 1232 347 L 1235 344 L 1237 340 L 1240 337 L 1241 334 L 1244 330 L 1247 327 L 1249 324 L 1252 320 L 1252 318 L 1256 314 L 1259 310 L 1260 307 L 1263 304 L 1264 301 L 1268 297 L 1269 294 L 1272 290 L 1275 287 L 1277 284 L 1280 280 L 1280 278 L 1284 274 L 1287 270 L 1288 267 L 1291 264 L 1293 260 L 1296 257 L 1297 254 L 1300 250 L 1303 247 L 1305 244 L 1308 240 L 1308 238 L 1312 234 L 1316 229 L 1316 227 L 1319 223 L 1321 221 L 1324 217 L 1325 215 L 1327 213 L 1328 210 L 1331 207 L 1333 204 L 1336 200 L 1336 198 L 1340 193 L 1344 189 L 1344 187 L 1347 183 L 1349 180 L 1352 177 L 1355 173 L 1356 170 L 1359 167 L 1361 164 L 1364 160 L 1364 158 L 1368 153 L 1372 149 L 1372 147 L 1375 144 L 1376 141 L 1380 137 L 1381 135 L 1383 133 L 1384 130 L 1387 127 L 1389 124 L 1392 120 L 1392 118 L 1400 109 L 1400 107 L 1403 103 L 1405 101 L 1408 97 L 1409 95 L 1411 93 L 1412 90 L 1415 87 L 1417 84 L 1420 80 L 1421 77 L 1428 69 L 1428 67 L 1431 63 L 1433 61 L 1436 57 L 1437 55 L 1439 53 L 1440 50 L 1443 47 L 1445 44 L 1448 40 L 1450 35 L 1450 32 Z M 277 19 L 270 20 L 266 22 L 262 23 L 254 23 L 250 24 L 248 26 L 245 27 L 240 27 L 237 28 L 235 30 L 232 31 L 229 31 L 226 32 L 224 34 L 222 35 L 219 35 L 217 36 L 214 39 L 211 39 L 208 42 L 206 43 L 204 43 L 201 46 L 196 48 L 193 51 L 190 52 L 188 54 L 186 55 L 180 60 L 156 84 L 151 90 L 151 92 L 147 96 L 146 99 L 143 102 L 143 104 L 140 107 L 139 109 L 139 111 L 136 114 L 135 116 L 135 119 L 134 121 L 132 123 L 131 125 L 131 128 L 130 131 L 128 133 L 127 136 L 127 141 L 126 144 L 124 146 L 123 150 L 123 159 L 121 166 L 120 171 L 120 196 L 121 201 L 123 207 L 123 217 L 124 221 L 126 223 L 127 226 L 127 232 L 128 234 L 130 236 L 131 238 L 131 242 L 132 244 L 134 246 L 135 248 L 135 250 L 136 252 L 138 254 L 139 256 L 139 258 L 143 262 L 143 265 L 147 270 L 151 274 L 151 276 L 155 281 L 163 290 L 177 304 L 186 312 L 188 313 L 190 315 L 193 316 L 198 320 L 202 324 L 205 325 L 208 328 L 212 331 L 215 332 L 218 335 L 223 337 L 226 340 L 229 341 L 231 343 L 234 344 L 238 348 L 240 348 L 242 349 L 245 352 L 248 353 L 250 355 L 255 357 L 258 360 L 260 360 L 262 361 L 264 363 L 269 365 L 272 368 L 274 368 L 277 371 L 279 372 L 281 372 L 284 375 L 286 376 L 288 376 L 291 379 L 293 380 L 295 380 L 297 381 L 298 383 L 300 384 L 302 384 L 304 385 L 307 388 L 309 388 L 311 389 L 314 392 L 317 392 L 320 395 L 324 396 L 327 399 L 329 400 L 331 400 L 334 403 L 336 404 L 338 404 L 342 408 L 345 408 L 348 411 L 350 412 L 352 412 L 355 415 L 360 417 L 363 420 L 365 420 L 367 421 L 370 424 L 372 424 L 374 425 L 377 428 L 380 429 L 383 432 L 385 432 L 388 435 L 393 437 L 396 440 L 399 441 L 404 445 L 408 448 L 413 452 L 415 455 L 424 464 L 427 466 L 431 471 L 434 475 L 436 478 L 439 482 L 439 484 L 442 487 L 443 489 L 443 491 L 444 493 L 446 495 L 447 497 L 447 501 L 449 503 L 451 507 L 451 513 L 452 517 L 454 521 L 455 526 L 455 544 L 454 549 L 453 553 L 451 557 L 451 563 L 447 570 L 447 573 L 446 575 L 443 578 L 443 581 L 440 585 L 438 588 L 435 592 L 431 597 L 428 599 L 421 607 L 416 611 L 411 615 L 408 616 L 405 619 L 403 619 L 401 620 L 398 623 L 395 623 L 393 624 L 391 626 L 389 627 L 385 627 L 382 628 L 380 630 L 377 631 L 371 631 L 367 632 L 364 634 L 360 635 L 343 636 L 318 636 L 300 635 L 296 634 L 293 632 L 288 631 L 281 631 L 278 630 L 275 628 L 272 627 L 267 627 L 265 626 L 263 624 L 261 623 L 257 623 L 255 622 L 253 620 L 251 620 L 248 619 L 246 618 L 244 616 L 242 615 L 240 615 L 238 614 L 236 612 L 231 610 L 228 607 L 226 607 L 223 604 L 220 603 L 216 599 L 214 599 L 208 594 L 188 574 L 184 569 L 183 566 L 180 563 L 179 560 L 176 557 L 176 555 L 175 553 L 173 551 L 172 549 L 172 547 L 171 545 L 169 543 L 168 541 L 168 538 L 166 534 L 164 532 L 164 528 L 163 525 L 161 523 L 160 520 L 160 515 L 157 510 L 156 507 L 156 502 L 155 498 L 153 495 L 152 492 L 152 485 L 151 482 L 149 477 L 148 474 L 148 466 L 147 462 L 146 460 L 141 458 L 130 458 L 128 459 L 127 671 L 128 673 L 129 675 L 144 675 L 146 672 L 147 670 L 148 666 L 148 659 L 152 652 L 152 649 L 160 641 L 162 640 L 166 639 L 180 639 L 189 640 L 192 641 L 195 643 L 198 644 L 204 644 L 209 647 L 212 648 L 217 648 L 220 649 L 222 651 L 225 652 L 230 652 L 232 653 L 234 655 L 237 656 L 242 656 L 247 659 L 250 660 L 255 660 L 260 663 L 263 664 L 269 664 L 272 665 L 274 667 L 277 668 L 284 668 L 288 669 L 291 671 L 298 672 L 313 672 L 320 673 L 323 675 L 357 675 L 359 673 L 366 672 L 381 672 L 385 671 L 390 669 L 393 668 L 400 668 L 403 667 L 406 665 L 409 664 L 414 664 L 417 663 L 419 661 L 421 660 L 425 660 L 427 659 L 429 657 L 431 656 L 434 656 L 436 655 L 438 653 L 440 652 L 442 652 L 444 651 L 447 648 L 449 648 L 451 647 L 454 644 L 456 644 L 460 641 L 463 639 L 466 636 L 470 633 L 476 629 L 482 624 L 492 613 L 495 611 L 501 604 L 504 600 L 508 595 L 511 591 L 512 588 L 515 585 L 517 580 L 520 577 L 520 574 L 522 572 L 524 569 L 524 566 L 525 564 L 527 562 L 528 560 L 528 556 L 532 549 L 532 544 L 533 541 L 535 537 L 536 534 L 536 524 L 538 517 L 539 512 L 539 489 L 538 482 L 536 476 L 536 466 L 535 463 L 533 460 L 532 457 L 532 452 L 531 449 L 529 447 L 528 445 L 528 441 L 527 439 L 525 437 L 524 435 L 524 432 L 523 430 L 521 428 L 520 426 L 520 424 L 519 422 L 516 419 L 516 417 L 513 414 L 511 409 L 508 405 L 504 400 L 500 395 L 496 390 L 483 378 L 481 375 L 476 371 L 471 367 L 467 364 L 464 362 L 460 359 L 458 358 L 456 356 L 453 355 L 450 352 L 448 351 L 445 350 L 442 347 L 439 346 L 436 343 L 434 343 L 431 340 L 429 339 L 427 339 L 424 336 L 419 334 L 416 331 L 414 331 L 412 329 L 409 327 L 407 327 L 405 325 L 402 323 L 400 323 L 398 322 L 395 319 L 393 319 L 391 318 L 388 315 L 386 315 L 384 314 L 381 311 L 379 311 L 377 310 L 374 307 L 372 307 L 370 306 L 368 304 L 366 303 L 364 303 L 361 300 L 359 299 L 357 299 L 355 298 L 352 295 L 350 295 L 348 294 L 346 292 L 344 291 L 342 291 L 340 290 L 337 287 L 335 287 L 333 286 L 331 284 L 326 282 L 324 280 L 319 278 L 317 276 L 315 275 L 313 275 L 309 271 L 306 271 L 303 268 L 298 266 L 296 264 L 293 263 L 290 260 L 285 258 L 282 255 L 279 254 L 277 252 L 274 251 L 271 248 L 268 247 L 265 244 L 262 243 L 259 240 L 256 239 L 252 235 L 250 234 L 248 232 L 245 231 L 240 226 L 235 223 L 230 219 L 228 217 L 226 215 L 219 207 L 216 205 L 212 200 L 212 198 L 208 194 L 207 191 L 205 189 L 204 187 L 204 185 L 203 183 L 201 181 L 200 179 L 200 174 L 199 171 L 197 168 L 196 164 L 196 139 L 197 136 L 199 133 L 200 129 L 200 124 L 201 122 L 203 120 L 204 118 L 204 115 L 206 112 L 208 110 L 208 108 L 212 104 L 212 102 L 216 97 L 230 83 L 235 79 L 239 76 L 242 75 L 245 72 L 249 71 L 252 68 L 254 68 L 257 67 L 259 65 L 261 64 L 265 64 L 268 63 L 271 61 L 274 60 L 281 60 L 288 58 L 294 57 L 320 57 L 325 58 L 332 60 L 341 60 L 344 61 L 347 63 L 350 64 L 356 64 L 363 68 L 366 68 L 369 69 L 371 71 L 373 72 L 376 72 L 378 74 L 382 76 L 384 76 L 386 77 L 389 80 L 391 80 L 393 81 L 396 84 L 398 84 L 402 88 L 405 89 L 409 92 L 413 95 L 420 101 L 422 104 L 427 109 L 430 111 L 436 118 L 440 123 L 443 127 L 443 129 L 447 133 L 448 136 L 450 138 L 451 140 L 451 142 L 452 144 L 454 146 L 455 148 L 455 150 L 456 152 L 458 154 L 459 156 L 459 160 L 460 162 L 462 164 L 463 166 L 463 170 L 464 173 L 467 178 L 467 183 L 468 186 L 470 190 L 471 193 L 471 199 L 472 204 L 474 207 L 475 211 L 475 221 L 476 225 L 477 229 L 478 233 L 479 235 L 495 236 L 497 234 L 497 21 L 495 19 L 480 19 L 478 21 L 478 23 L 476 25 L 475 29 L 475 33 L 473 37 L 471 39 L 471 42 L 462 51 L 459 52 L 457 52 L 454 54 L 449 55 L 446 55 L 441 54 L 438 52 L 435 51 L 430 51 L 423 47 L 419 47 L 417 45 L 413 43 L 410 43 L 408 42 L 406 40 L 404 39 L 400 39 L 398 38 L 396 36 L 393 35 L 390 35 L 387 34 L 385 32 L 382 31 L 378 31 L 375 30 L 373 28 L 369 27 L 364 27 L 361 26 L 357 24 L 354 23 L 346 23 L 341 22 L 337 20 L 330 19 Z M 2426 3 L 2425 4 L 2419 7 L 2417 7 L 2414 10 L 2411 11 L 2407 14 L 2403 18 L 2399 23 L 2399 25 L 2396 28 L 2395 30 L 2394 34 L 2394 36 L 2392 39 L 2391 43 L 2391 56 L 2392 61 L 2394 63 L 2395 66 L 2395 69 L 2396 71 L 2399 74 L 2399 76 L 2403 81 L 2410 88 L 2413 89 L 2416 92 L 2418 92 L 2420 93 L 2422 95 L 2425 96 L 2432 97 L 2447 97 L 2454 96 L 2457 95 L 2459 93 L 2464 91 L 2468 88 L 2471 85 L 2473 83 L 2477 79 L 2480 75 L 2481 72 L 2483 70 L 2484 68 L 2484 64 L 2486 60 L 2487 57 L 2487 42 L 2486 39 L 2484 36 L 2484 32 L 2483 30 L 2481 28 L 2479 23 L 2476 19 L 2471 14 L 2467 11 L 2463 8 L 2461 7 L 2459 7 L 2452 3 Z M 742 3 L 738 4 L 736 6 L 734 7 L 731 7 L 727 10 L 724 12 L 715 21 L 714 24 L 711 27 L 711 29 L 707 36 L 706 46 L 706 53 L 707 63 L 708 66 L 710 68 L 711 70 L 711 73 L 715 78 L 725 88 L 730 92 L 733 92 L 735 94 L 739 96 L 746 97 L 761 97 L 769 96 L 771 95 L 773 93 L 775 92 L 777 92 L 781 89 L 784 87 L 787 84 L 788 82 L 793 77 L 796 73 L 796 70 L 797 68 L 799 66 L 800 64 L 801 54 L 801 45 L 800 36 L 799 33 L 797 31 L 796 29 L 796 27 L 795 25 L 792 21 L 782 11 L 779 10 L 776 7 L 773 7 L 771 6 L 769 4 L 766 3 Z "/>
</svg>