<svg xmlns="http://www.w3.org/2000/svg" viewBox="0 0 1984 1456" width="1984" height="1456">
<path fill-rule="evenodd" fill="black" d="M 1189 3 L 1169 4 L 1159 5 L 1148 7 L 1129 7 L 1122 8 L 1117 10 L 1113 11 L 1105 11 L 1101 12 L 1098 13 L 1095 15 L 1089 15 L 1086 16 L 1081 19 L 1076 19 L 1069 23 L 1065 23 L 1063 24 L 1061 26 L 1059 27 L 1055 27 L 1053 29 L 1049 31 L 1047 31 L 1045 32 L 1043 34 L 1041 35 L 1039 35 L 1037 36 L 1034 39 L 1032 39 L 1030 40 L 1028 42 L 1025 43 L 1022 45 L 1020 47 L 1018 47 L 1014 51 L 1011 52 L 1009 54 L 1007 55 L 1003 58 L 998 62 L 993 67 L 988 71 L 984 74 L 974 83 L 971 86 L 963 95 L 955 104 L 951 109 L 947 114 L 943 119 L 943 121 L 939 125 L 935 130 L 935 132 L 932 135 L 931 138 L 927 142 L 927 144 L 925 146 L 923 149 L 922 152 L 919 155 L 919 157 L 918 159 L 915 162 L 915 164 L 914 166 L 912 168 L 911 170 L 911 172 L 908 175 L 907 177 L 907 179 L 906 181 L 904 183 L 903 185 L 903 187 L 902 189 L 900 191 L 899 193 L 899 196 L 896 199 L 895 202 L 895 204 L 893 208 L 891 210 L 891 213 L 889 217 L 887 219 L 887 223 L 886 225 L 884 227 L 883 229 L 883 233 L 882 235 L 880 237 L 879 239 L 879 243 L 878 245 L 876 247 L 875 250 L 875 254 L 874 256 L 872 258 L 871 261 L 871 264 L 867 271 L 867 275 L 866 277 L 864 279 L 863 281 L 863 285 L 862 288 L 860 290 L 859 293 L 859 297 L 855 304 L 855 309 L 852 314 L 851 317 L 851 323 L 850 326 L 848 329 L 847 332 L 847 339 L 846 342 L 844 345 L 843 349 L 843 355 L 842 358 L 840 361 L 839 365 L 839 372 L 838 375 L 836 378 L 835 382 L 835 389 L 834 393 L 832 396 L 831 400 L 831 407 L 830 410 L 828 414 L 827 418 L 827 426 L 826 430 L 824 434 L 823 438 L 823 448 L 822 453 L 820 458 L 819 463 L 819 466 L 820 468 L 823 468 L 828 463 L 828 461 L 831 458 L 832 456 L 832 454 L 835 451 L 836 449 L 836 447 L 839 444 L 840 442 L 840 440 L 841 438 L 843 436 L 845 431 L 847 429 L 848 427 L 848 425 L 849 423 L 852 420 L 852 418 L 853 416 L 856 413 L 856 410 L 859 407 L 860 405 L 860 403 L 863 400 L 864 398 L 864 396 L 867 393 L 868 391 L 868 389 L 872 385 L 872 383 L 873 381 L 875 379 L 876 376 L 879 373 L 881 368 L 884 365 L 885 362 L 887 359 L 889 356 L 892 353 L 893 351 L 895 349 L 896 346 L 899 343 L 901 339 L 904 335 L 908 330 L 912 325 L 917 319 L 921 314 L 924 312 L 929 306 L 932 302 L 938 296 L 940 294 L 942 292 L 944 290 L 946 288 L 955 280 L 960 276 L 966 271 L 970 268 L 975 264 L 977 264 L 982 260 L 986 256 L 991 252 L 995 249 L 999 247 L 1002 244 L 1007 240 L 1009 240 L 1013 236 L 1016 235 L 1019 232 L 1021 232 L 1024 229 L 1026 228 L 1028 228 L 1031 225 L 1033 224 L 1035 224 L 1037 223 L 1039 221 L 1041 220 L 1043 220 L 1045 219 L 1047 217 L 1049 216 L 1051 216 L 1053 215 L 1055 213 L 1057 212 L 1060 212 L 1062 210 L 1066 208 L 1069 208 L 1071 207 L 1073 205 L 1075 204 L 1078 204 L 1081 203 L 1083 201 L 1085 200 L 1089 200 L 1096 196 L 1101 196 L 1106 193 L 1109 192 L 1114 192 L 1117 191 L 1121 189 L 1124 188 L 1131 188 L 1135 187 L 1139 185 L 1142 184 L 1152 184 L 1158 183 L 1162 181 L 1168 180 L 1183 180 L 1192 179 L 1199 177 L 1208 176 L 1246 175 L 1294 174 L 1375 174 L 1411 172 L 1449 172 L 1463 171 L 1471 169 L 1478 168 L 1495 168 L 1502 167 L 1507 165 L 1511 164 L 1522 164 L 1528 163 L 1532 161 L 1536 160 L 1544 160 L 1548 159 L 1551 157 L 1555 156 L 1561 156 L 1565 155 L 1568 153 L 1571 152 L 1577 152 L 1580 151 L 1582 149 L 1585 148 L 1590 148 L 1593 147 L 1595 145 L 1598 144 L 1603 144 L 1610 140 L 1615 140 L 1622 136 L 1626 136 L 1629 135 L 1631 133 L 1633 132 L 1637 132 L 1644 128 L 1647 128 L 1650 127 L 1652 125 L 1654 124 L 1657 124 L 1660 123 L 1662 121 L 1664 120 L 1667 120 L 1669 119 L 1671 117 L 1673 116 L 1677 116 L 1680 114 L 1682 112 L 1685 112 L 1687 111 L 1689 109 L 1691 108 L 1694 108 L 1696 107 L 1698 105 L 1700 104 L 1702 104 L 1705 103 L 1707 101 L 1709 100 L 1711 100 L 1713 99 L 1715 97 L 1717 96 L 1719 96 L 1721 95 L 1723 93 L 1725 92 L 1727 92 L 1729 91 L 1732 88 L 1734 88 L 1737 87 L 1740 84 L 1742 84 L 1744 83 L 1746 81 L 1751 79 L 1753 77 L 1755 76 L 1757 76 L 1760 73 L 1765 71 L 1768 68 L 1770 68 L 1772 67 L 1775 64 L 1777 64 L 1779 63 L 1781 61 L 1783 60 L 1785 60 L 1788 57 L 1790 56 L 1792 56 L 1794 54 L 1797 53 L 1799 51 L 1801 51 L 1804 48 L 1807 47 L 1810 45 L 1811 47 L 1809 50 L 1807 52 L 1801 57 L 1795 62 L 1791 64 L 1787 67 L 1782 71 L 1777 75 L 1769 83 L 1764 87 L 1759 91 L 1753 96 L 1749 99 L 1744 103 L 1740 106 L 1736 108 L 1733 111 L 1728 115 L 1726 115 L 1722 119 L 1719 120 L 1716 123 L 1712 126 L 1709 127 L 1706 130 L 1704 131 L 1702 131 L 1698 135 L 1695 136 L 1692 139 L 1690 139 L 1688 141 L 1685 143 L 1683 143 L 1680 146 L 1675 148 L 1672 151 L 1670 151 L 1668 153 L 1665 155 L 1663 155 L 1661 157 L 1658 159 L 1656 159 L 1654 160 L 1652 162 L 1647 164 L 1645 166 L 1643 167 L 1641 167 L 1638 170 L 1636 171 L 1634 171 L 1632 172 L 1630 174 L 1628 175 L 1626 175 L 1624 177 L 1621 179 L 1618 179 L 1615 182 L 1613 183 L 1611 183 L 1609 184 L 1607 186 L 1605 187 L 1602 187 L 1599 190 L 1597 191 L 1594 191 L 1592 193 L 1589 195 L 1586 195 L 1584 197 L 1580 199 L 1578 199 L 1576 200 L 1574 202 L 1572 203 L 1570 203 L 1566 205 L 1564 207 L 1561 207 L 1559 208 L 1557 210 L 1555 211 L 1550 212 L 1547 215 L 1544 215 L 1542 216 L 1540 218 L 1538 219 L 1535 219 L 1533 220 L 1531 222 L 1529 223 L 1526 223 L 1523 225 L 1521 227 L 1518 227 L 1516 228 L 1514 230 L 1512 231 L 1510 231 L 1508 232 L 1506 234 L 1504 235 L 1502 235 L 1499 237 L 1497 239 L 1494 239 L 1491 242 L 1489 243 L 1487 243 L 1484 246 L 1482 247 L 1480 247 L 1478 248 L 1475 251 L 1472 252 L 1469 255 L 1466 256 L 1464 258 L 1462 259 L 1457 263 L 1449 271 L 1447 272 L 1443 276 L 1440 279 L 1432 288 L 1427 294 L 1423 299 L 1423 301 L 1419 305 L 1415 310 L 1415 312 L 1412 315 L 1411 318 L 1407 322 L 1407 324 L 1404 327 L 1402 332 L 1399 335 L 1399 337 L 1396 340 L 1394 345 L 1392 347 L 1390 352 L 1387 355 L 1387 357 L 1386 359 L 1383 362 L 1383 364 L 1380 367 L 1378 372 L 1376 374 L 1374 379 L 1371 382 L 1371 384 L 1368 387 L 1366 392 L 1363 395 L 1363 397 L 1360 400 L 1358 405 L 1355 408 L 1355 410 L 1351 414 L 1351 416 L 1350 418 L 1347 421 L 1346 424 L 1343 427 L 1343 429 L 1342 431 L 1339 434 L 1339 436 L 1336 439 L 1334 444 L 1331 447 L 1331 449 L 1328 452 L 1327 455 L 1324 458 L 1323 460 L 1322 463 L 1319 466 L 1319 468 L 1318 470 L 1316 471 L 1315 474 L 1314 476 L 1311 479 L 1311 481 L 1308 484 L 1306 489 L 1304 492 L 1303 494 L 1299 498 L 1299 501 L 1296 504 L 1295 507 L 1292 510 L 1290 515 L 1287 518 L 1287 520 L 1284 523 L 1282 528 L 1279 531 L 1279 533 L 1276 536 L 1274 541 L 1271 544 L 1271 546 L 1267 550 L 1267 552 L 1266 554 L 1263 557 L 1262 560 L 1260 562 L 1258 567 L 1255 570 L 1255 572 L 1252 575 L 1250 580 L 1247 583 L 1247 585 L 1244 588 L 1242 593 L 1240 595 L 1239 598 L 1235 602 L 1235 604 L 1234 606 L 1231 609 L 1230 612 L 1227 615 L 1227 617 L 1224 620 L 1222 625 L 1219 628 L 1219 630 L 1215 634 L 1215 636 L 1214 638 L 1211 641 L 1210 644 L 1207 647 L 1207 649 L 1204 652 L 1203 655 L 1200 658 L 1198 663 L 1195 666 L 1195 668 L 1192 671 L 1190 676 L 1187 679 L 1187 681 L 1183 685 L 1182 688 L 1180 690 L 1179 693 L 1177 695 L 1175 698 L 1174 701 L 1172 703 L 1171 706 L 1168 709 L 1167 711 L 1167 713 L 1163 717 L 1163 719 L 1160 722 L 1158 727 L 1155 730 L 1155 732 L 1152 735 L 1150 740 L 1147 743 L 1147 745 L 1144 748 L 1143 750 L 1143 752 L 1140 755 L 1138 760 L 1135 763 L 1135 765 L 1133 768 L 1131 770 L 1131 772 L 1128 775 L 1126 780 L 1124 782 L 1122 787 L 1119 790 L 1119 792 L 1116 795 L 1114 800 L 1111 803 L 1111 805 L 1108 808 L 1107 811 L 1104 814 L 1102 819 L 1099 822 L 1099 824 L 1096 827 L 1094 832 L 1091 835 L 1091 837 L 1088 840 L 1086 845 L 1083 848 L 1083 850 L 1079 854 L 1079 856 L 1078 858 L 1075 861 L 1075 863 L 1071 867 L 1071 869 L 1069 871 L 1067 874 L 1067 876 L 1064 879 L 1063 882 L 1060 885 L 1059 887 L 1059 889 L 1056 892 L 1055 895 L 1052 898 L 1050 903 L 1047 906 L 1047 908 L 1044 911 L 1042 916 L 1039 919 L 1039 921 L 1036 924 L 1034 929 L 1031 932 L 1031 934 L 1027 938 L 1027 940 L 1026 942 L 1023 945 L 1023 947 L 1022 949 L 1019 952 L 1019 954 L 1018 956 L 1015 959 L 1015 961 L 1014 963 L 1011 966 L 1011 968 L 1008 971 L 1006 976 L 1003 979 L 1003 981 L 1000 984 L 998 989 L 995 992 L 994 995 L 991 998 L 991 1000 L 990 1002 L 987 1005 L 987 1007 L 984 1010 L 983 1012 L 983 1014 L 979 1018 L 979 1020 L 978 1022 L 975 1025 L 974 1028 L 971 1031 L 971 1033 L 970 1035 L 967 1038 L 966 1041 L 964 1044 L 963 1046 L 959 1050 L 959 1052 L 956 1055 L 955 1057 L 954 1060 L 951 1063 L 951 1065 L 948 1068 L 947 1071 L 944 1074 L 943 1076 L 943 1078 L 940 1081 L 939 1083 L 939 1085 L 936 1088 L 935 1091 L 934 1093 L 932 1095 L 931 1098 L 927 1102 L 927 1105 L 924 1108 L 923 1111 L 920 1114 L 918 1119 L 915 1122 L 915 1124 L 912 1127 L 911 1130 L 908 1133 L 907 1135 L 907 1137 L 903 1141 L 902 1144 L 899 1147 L 899 1149 L 896 1152 L 894 1157 L 891 1160 L 890 1163 L 887 1166 L 887 1168 L 884 1171 L 882 1176 L 879 1179 L 879 1181 L 876 1184 L 875 1187 L 872 1190 L 870 1195 L 867 1198 L 867 1200 L 864 1203 L 862 1208 L 860 1210 L 858 1215 L 855 1218 L 855 1220 L 854 1222 L 852 1224 L 851 1227 L 848 1230 L 847 1233 L 844 1236 L 843 1239 L 839 1243 L 839 1245 L 836 1248 L 835 1251 L 832 1254 L 830 1259 L 827 1262 L 827 1264 L 824 1267 L 823 1270 L 819 1274 L 819 1276 L 816 1280 L 814 1283 L 811 1287 L 807 1291 L 804 1295 L 800 1300 L 795 1307 L 791 1312 L 783 1321 L 781 1323 L 779 1325 L 769 1335 L 767 1337 L 765 1339 L 756 1347 L 748 1354 L 742 1359 L 737 1363 L 734 1364 L 731 1367 L 728 1368 L 725 1371 L 723 1371 L 720 1374 L 718 1375 L 714 1376 L 711 1379 L 709 1379 L 706 1380 L 704 1382 L 702 1383 L 699 1383 L 692 1387 L 688 1387 L 685 1388 L 680 1391 L 674 1391 L 670 1392 L 666 1394 L 663 1395 L 654 1395 L 647 1396 L 642 1398 L 636 1399 L 572 1399 L 568 1398 L 564 1396 L 560 1395 L 553 1395 L 550 1394 L 548 1392 L 545 1391 L 540 1391 L 535 1388 L 532 1387 L 527 1387 L 525 1386 L 523 1384 L 521 1383 L 517 1383 L 510 1379 L 507 1379 L 503 1377 L 501 1375 L 498 1375 L 494 1373 L 492 1371 L 489 1371 L 487 1370 L 485 1368 L 483 1367 L 481 1367 L 479 1366 L 476 1363 L 474 1363 L 472 1362 L 469 1359 L 467 1359 L 465 1358 L 462 1355 L 459 1354 L 455 1351 L 450 1347 L 445 1343 L 439 1338 L 437 1335 L 434 1334 L 431 1331 L 426 1327 L 417 1319 L 388 1290 L 380 1281 L 376 1276 L 375 1273 L 372 1269 L 368 1265 L 367 1262 L 364 1259 L 363 1256 L 360 1253 L 360 1251 L 357 1248 L 355 1243 L 352 1240 L 352 1238 L 351 1236 L 348 1233 L 348 1231 L 346 1229 L 344 1226 L 344 1224 L 343 1222 L 341 1220 L 340 1218 L 340 1216 L 339 1214 L 337 1212 L 336 1210 L 336 1208 L 335 1206 L 333 1204 L 332 1202 L 332 1199 L 331 1197 L 329 1195 L 328 1193 L 328 1190 L 324 1183 L 324 1180 L 323 1177 L 321 1175 L 320 1173 L 320 1169 L 319 1166 L 316 1161 L 316 1156 L 315 1152 L 312 1147 L 312 1141 L 311 1137 L 309 1134 L 308 1131 L 308 1122 L 307 1118 L 305 1114 L 304 1110 L 304 1098 L 303 1092 L 301 1086 L 300 1078 L 299 1047 L 299 1027 L 300 998 L 301 990 L 303 985 L 304 979 L 304 969 L 305 965 L 307 961 L 308 957 L 308 950 L 309 947 L 311 944 L 312 941 L 312 935 L 315 930 L 316 927 L 316 922 L 320 915 L 320 911 L 324 904 L 324 901 L 325 899 L 327 897 L 327 895 L 328 892 L 329 890 L 331 888 L 332 886 L 332 884 L 333 882 L 335 880 L 336 878 L 336 876 L 339 873 L 341 868 L 344 865 L 344 863 L 347 859 L 349 856 L 353 851 L 357 847 L 360 843 L 372 832 L 374 829 L 377 828 L 379 825 L 384 821 L 387 819 L 392 816 L 396 813 L 399 811 L 401 808 L 401 804 L 399 803 L 383 803 L 369 804 L 362 806 L 354 807 L 342 807 L 336 808 L 333 810 L 328 811 L 321 811 L 317 812 L 314 814 L 311 815 L 305 815 L 302 816 L 300 818 L 297 819 L 293 819 L 290 820 L 288 822 L 286 823 L 282 823 L 278 825 L 276 827 L 273 827 L 270 828 L 268 830 L 266 831 L 264 831 L 262 832 L 260 834 L 258 835 L 254 836 L 251 839 L 249 839 L 246 841 L 244 843 L 242 843 L 238 847 L 235 848 L 232 851 L 230 851 L 225 855 L 221 859 L 218 860 L 214 863 L 208 868 L 197 879 L 195 881 L 193 883 L 191 885 L 189 887 L 187 889 L 180 896 L 175 902 L 171 907 L 171 909 L 167 913 L 166 916 L 163 919 L 162 922 L 159 925 L 159 927 L 156 930 L 155 932 L 155 934 L 154 936 L 151 939 L 151 941 L 150 943 L 148 945 L 147 947 L 147 950 L 146 952 L 144 954 L 143 956 L 143 959 L 142 961 L 140 963 L 139 966 L 139 969 L 138 972 L 136 974 L 135 977 L 135 981 L 134 984 L 132 986 L 131 990 L 131 995 L 130 998 L 128 1001 L 127 1005 L 127 1013 L 126 1017 L 124 1021 L 123 1026 L 123 1041 L 121 1050 L 120 1062 L 120 1087 L 121 1097 L 123 1106 L 123 1122 L 124 1128 L 126 1132 L 127 1136 L 127 1145 L 128 1150 L 130 1153 L 131 1156 L 131 1163 L 132 1166 L 133 1169 L 135 1172 L 135 1177 L 136 1181 L 138 1183 L 139 1185 L 139 1190 L 140 1193 L 142 1195 L 143 1198 L 143 1202 L 144 1204 L 146 1206 L 147 1208 L 147 1212 L 148 1214 L 150 1216 L 151 1218 L 151 1221 L 153 1225 L 155 1227 L 155 1230 L 156 1232 L 159 1235 L 159 1238 L 162 1241 L 163 1243 L 163 1245 L 164 1247 L 167 1250 L 167 1252 L 170 1255 L 172 1260 L 174 1262 L 175 1265 L 178 1268 L 179 1271 L 182 1274 L 183 1277 L 187 1282 L 191 1286 L 192 1289 L 195 1293 L 200 1299 L 207 1307 L 215 1316 L 218 1318 L 220 1321 L 222 1322 L 224 1325 L 226 1327 L 228 1329 L 232 1332 L 240 1340 L 248 1347 L 254 1352 L 259 1356 L 263 1359 L 267 1361 L 268 1363 L 271 1365 L 275 1368 L 277 1368 L 281 1372 L 284 1373 L 287 1376 L 290 1377 L 293 1380 L 296 1381 L 299 1384 L 301 1384 L 303 1385 L 306 1388 L 308 1388 L 310 1389 L 313 1392 L 315 1392 L 317 1393 L 319 1395 L 324 1397 L 326 1399 L 328 1400 L 330 1400 L 332 1401 L 334 1403 L 336 1404 L 339 1404 L 341 1405 L 343 1407 L 345 1408 L 348 1408 L 350 1410 L 354 1412 L 357 1412 L 364 1416 L 367 1416 L 374 1420 L 378 1420 L 381 1421 L 383 1423 L 386 1424 L 390 1424 L 393 1425 L 395 1427 L 398 1428 L 404 1428 L 407 1429 L 410 1431 L 413 1432 L 420 1432 L 423 1433 L 426 1435 L 431 1436 L 439 1436 L 443 1437 L 447 1439 L 452 1440 L 461 1440 L 465 1441 L 469 1443 L 475 1444 L 485 1444 L 490 1445 L 495 1447 L 501 1448 L 515 1448 L 521 1449 L 526 1451 L 536 1452 L 562 1452 L 581 1453 L 585 1455 L 635 1455 L 642 1453 L 686 1452 L 1078 1452 L 1159 1453 L 1176 1455 L 1409 1455 L 1420 1453 L 1459 1452 L 1522 1452 L 1540 1451 L 1549 1450 L 1559 1448 L 1576 1448 L 1581 1447 L 1585 1445 L 1588 1444 L 1594 1444 L 1597 1443 L 1600 1441 L 1603 1440 L 1608 1440 L 1613 1437 L 1616 1436 L 1620 1436 L 1627 1432 L 1631 1432 L 1633 1431 L 1635 1429 L 1638 1428 L 1641 1428 L 1648 1424 L 1650 1424 L 1652 1423 L 1654 1421 L 1656 1420 L 1658 1420 L 1660 1419 L 1663 1416 L 1665 1416 L 1667 1415 L 1670 1412 L 1672 1412 L 1676 1409 L 1679 1407 L 1683 1404 L 1686 1401 L 1689 1400 L 1694 1396 L 1700 1391 L 1708 1384 L 1721 1372 L 1724 1369 L 1732 1360 L 1736 1354 L 1739 1352 L 1744 1346 L 1749 1340 L 1752 1336 L 1753 1333 L 1756 1330 L 1759 1326 L 1761 1321 L 1764 1318 L 1765 1315 L 1768 1312 L 1768 1310 L 1771 1307 L 1772 1305 L 1772 1303 L 1773 1301 L 1775 1299 L 1776 1297 L 1776 1295 L 1779 1292 L 1780 1290 L 1780 1288 L 1781 1286 L 1783 1284 L 1784 1282 L 1784 1280 L 1787 1277 L 1788 1274 L 1788 1272 L 1791 1269 L 1792 1266 L 1792 1263 L 1794 1261 L 1796 1257 L 1796 1254 L 1797 1252 L 1799 1250 L 1800 1248 L 1800 1245 L 1801 1242 L 1803 1240 L 1804 1238 L 1804 1234 L 1808 1227 L 1808 1223 L 1812 1216 L 1812 1211 L 1816 1204 L 1816 1199 L 1817 1196 L 1819 1193 L 1820 1190 L 1820 1185 L 1821 1182 L 1823 1179 L 1824 1176 L 1824 1170 L 1825 1167 L 1827 1164 L 1828 1161 L 1828 1153 L 1829 1150 L 1831 1147 L 1832 1143 L 1832 1135 L 1833 1131 L 1835 1128 L 1836 1124 L 1836 1115 L 1837 1111 L 1839 1107 L 1840 1102 L 1840 1093 L 1841 1088 L 1843 1084 L 1844 1078 L 1844 1066 L 1845 1062 L 1847 1056 L 1848 1049 L 1848 1034 L 1849 1027 L 1851 1021 L 1852 1009 L 1853 973 L 1853 962 L 1852 960 L 1849 959 L 1847 961 L 1847 964 L 1846 967 L 1844 970 L 1843 974 L 1843 979 L 1839 986 L 1839 990 L 1838 992 L 1836 994 L 1835 997 L 1835 1000 L 1834 1002 L 1832 1004 L 1831 1006 L 1831 1009 L 1829 1012 L 1827 1014 L 1827 1017 L 1826 1019 L 1823 1022 L 1823 1025 L 1821 1028 L 1819 1030 L 1819 1032 L 1818 1034 L 1816 1036 L 1814 1041 L 1812 1043 L 1810 1048 L 1808 1050 L 1806 1055 L 1803 1058 L 1803 1060 L 1802 1062 L 1799 1065 L 1799 1067 L 1796 1070 L 1794 1075 L 1791 1078 L 1791 1080 L 1788 1083 L 1786 1088 L 1783 1091 L 1783 1093 L 1780 1096 L 1779 1099 L 1775 1103 L 1775 1105 L 1771 1110 L 1767 1114 L 1766 1116 L 1764 1118 L 1763 1121 L 1760 1123 L 1756 1129 L 1747 1139 L 1734 1152 L 1732 1154 L 1720 1166 L 1710 1175 L 1701 1183 L 1696 1187 L 1693 1190 L 1690 1191 L 1688 1194 L 1683 1198 L 1680 1200 L 1676 1203 L 1674 1203 L 1671 1206 L 1668 1207 L 1665 1210 L 1662 1211 L 1659 1214 L 1656 1216 L 1652 1219 L 1650 1219 L 1647 1222 L 1644 1223 L 1641 1226 L 1636 1228 L 1633 1231 L 1630 1231 L 1627 1234 L 1625 1235 L 1623 1235 L 1621 1236 L 1619 1238 L 1617 1239 L 1614 1239 L 1611 1242 L 1609 1243 L 1606 1243 L 1604 1244 L 1602 1246 L 1600 1247 L 1597 1247 L 1594 1248 L 1592 1250 L 1590 1251 L 1586 1251 L 1579 1255 L 1574 1255 L 1571 1256 L 1569 1258 L 1567 1259 L 1562 1259 L 1558 1260 L 1555 1262 L 1552 1263 L 1546 1263 L 1543 1264 L 1540 1266 L 1536 1267 L 1529 1267 L 1525 1268 L 1521 1270 L 1516 1271 L 1506 1271 L 1501 1272 L 1496 1274 L 1491 1275 L 1477 1275 L 1469 1276 L 1462 1278 L 1454 1279 L 1428 1279 L 1407 1281 L 1387 1282 L 1323 1283 L 1203 1283 L 1185 1284 L 1176 1286 L 1165 1287 L 1145 1287 L 1137 1288 L 1130 1290 L 1125 1291 L 1112 1291 L 1105 1292 L 1101 1294 L 1097 1295 L 1087 1295 L 1082 1296 L 1079 1298 L 1076 1299 L 1067 1299 L 1063 1300 L 1061 1302 L 1057 1303 L 1050 1303 L 1047 1304 L 1044 1306 L 1041 1307 L 1036 1307 L 1033 1308 L 1030 1310 L 1027 1311 L 1022 1311 L 1015 1315 L 1010 1315 L 1008 1316 L 1006 1318 L 1004 1319 L 1000 1319 L 993 1323 L 989 1323 L 986 1324 L 984 1326 L 982 1327 L 978 1327 L 975 1328 L 973 1330 L 971 1331 L 967 1331 L 960 1335 L 956 1335 L 954 1336 L 952 1338 L 949 1339 L 946 1339 L 943 1340 L 938 1343 L 935 1343 L 933 1344 L 931 1346 L 929 1347 L 926 1347 L 924 1348 L 922 1350 L 920 1351 L 917 1351 L 915 1352 L 913 1354 L 911 1355 L 908 1355 L 906 1356 L 904 1358 L 902 1359 L 900 1359 L 898 1360 L 896 1362 L 894 1363 L 891 1363 L 889 1364 L 887 1366 L 885 1367 L 883 1367 L 881 1368 L 879 1370 L 877 1371 L 874 1371 L 871 1374 L 869 1375 L 866 1375 L 863 1377 L 861 1379 L 858 1379 L 856 1380 L 854 1382 L 852 1383 L 850 1383 L 848 1384 L 846 1386 L 844 1387 L 842 1387 L 838 1389 L 836 1391 L 833 1391 L 831 1392 L 829 1394 L 827 1395 L 825 1395 L 823 1396 L 821 1398 L 819 1399 L 817 1399 L 815 1400 L 813 1402 L 811 1403 L 808 1403 L 806 1404 L 804 1406 L 802 1407 L 799 1407 L 796 1410 L 794 1411 L 791 1411 L 789 1412 L 787 1414 L 785 1415 L 782 1415 L 778 1417 L 776 1419 L 772 1420 L 770 1420 L 768 1422 L 766 1423 L 763 1423 L 756 1427 L 753 1428 L 751 1428 L 749 1426 L 751 1424 L 754 1423 L 757 1421 L 760 1419 L 763 1416 L 765 1416 L 769 1412 L 774 1408 L 776 1408 L 780 1405 L 783 1403 L 786 1400 L 789 1399 L 792 1396 L 795 1395 L 798 1392 L 801 1391 L 804 1388 L 807 1387 L 810 1384 L 813 1383 L 816 1380 L 819 1379 L 822 1376 L 824 1376 L 828 1373 L 830 1371 L 834 1368 L 836 1368 L 839 1365 L 842 1364 L 846 1360 L 848 1360 L 851 1357 L 854 1356 L 858 1352 L 860 1352 L 863 1349 L 866 1348 L 869 1345 L 872 1344 L 875 1341 L 878 1340 L 881 1337 L 886 1335 L 889 1332 L 892 1331 L 895 1328 L 897 1328 L 900 1325 L 905 1323 L 908 1320 L 910 1320 L 912 1319 L 915 1316 L 917 1316 L 919 1314 L 922 1312 L 925 1312 L 928 1309 L 930 1308 L 932 1308 L 935 1305 L 937 1304 L 939 1304 L 941 1303 L 943 1301 L 948 1299 L 950 1297 L 952 1296 L 954 1296 L 956 1295 L 958 1293 L 960 1292 L 962 1292 L 964 1291 L 966 1289 L 971 1287 L 973 1285 L 975 1284 L 977 1284 L 979 1283 L 981 1281 L 983 1280 L 985 1280 L 988 1278 L 990 1276 L 993 1276 L 996 1273 L 998 1272 L 1000 1272 L 1002 1271 L 1004 1269 L 1006 1268 L 1008 1268 L 1011 1265 L 1013 1264 L 1015 1264 L 1017 1263 L 1019 1261 L 1021 1260 L 1023 1260 L 1025 1259 L 1027 1257 L 1032 1255 L 1034 1253 L 1039 1251 L 1041 1249 L 1043 1248 L 1045 1248 L 1048 1245 L 1050 1244 L 1052 1244 L 1055 1241 L 1060 1239 L 1062 1237 L 1067 1235 L 1070 1232 L 1072 1232 L 1075 1229 L 1078 1228 L 1082 1224 L 1084 1224 L 1087 1221 L 1090 1220 L 1094 1216 L 1097 1215 L 1099 1213 L 1101 1212 L 1106 1208 L 1112 1203 L 1119 1196 L 1124 1191 L 1132 1183 L 1136 1178 L 1137 1175 L 1140 1172 L 1143 1168 L 1144 1165 L 1148 1161 L 1148 1159 L 1151 1156 L 1152 1153 L 1156 1149 L 1156 1147 L 1157 1145 L 1159 1144 L 1160 1141 L 1163 1138 L 1164 1135 L 1165 1133 L 1168 1130 L 1169 1127 L 1172 1124 L 1172 1122 L 1175 1119 L 1176 1116 L 1179 1113 L 1180 1110 L 1182 1108 L 1184 1105 L 1185 1102 L 1187 1100 L 1188 1097 L 1192 1093 L 1192 1091 L 1193 1089 L 1196 1086 L 1197 1083 L 1200 1080 L 1200 1078 L 1203 1075 L 1204 1072 L 1207 1069 L 1208 1066 L 1209 1064 L 1212 1061 L 1212 1059 L 1215 1056 L 1217 1051 L 1220 1048 L 1220 1046 L 1223 1043 L 1225 1038 L 1227 1036 L 1228 1033 L 1232 1029 L 1232 1027 L 1233 1025 L 1236 1022 L 1236 1020 L 1239 1017 L 1241 1012 L 1244 1009 L 1244 1007 L 1247 1004 L 1249 999 L 1252 996 L 1252 994 L 1253 992 L 1256 989 L 1256 987 L 1259 984 L 1261 979 L 1263 977 L 1265 972 L 1268 969 L 1268 967 L 1271 964 L 1272 961 L 1274 959 L 1276 956 L 1276 954 L 1279 951 L 1281 946 L 1284 943 L 1284 941 L 1287 938 L 1288 936 L 1288 934 L 1291 931 L 1293 926 L 1296 923 L 1296 921 L 1300 917 L 1300 915 L 1301 913 L 1304 910 L 1305 907 L 1308 904 L 1308 902 L 1311 899 L 1313 894 L 1316 891 L 1317 888 L 1320 885 L 1320 883 L 1323 880 L 1324 877 L 1327 874 L 1329 869 L 1332 866 L 1333 863 L 1336 860 L 1336 858 L 1339 855 L 1340 852 L 1343 849 L 1344 846 L 1346 844 L 1348 841 L 1349 838 L 1351 836 L 1352 833 L 1356 829 L 1356 827 L 1357 825 L 1360 822 L 1361 819 L 1364 816 L 1364 814 L 1365 812 L 1368 809 L 1368 807 L 1371 804 L 1373 799 L 1375 797 L 1377 792 L 1380 789 L 1380 787 L 1381 785 L 1384 782 L 1385 779 L 1388 776 L 1388 774 L 1391 771 L 1392 768 L 1395 765 L 1397 760 L 1400 757 L 1401 754 L 1403 752 L 1404 749 L 1407 746 L 1408 744 L 1408 742 L 1411 739 L 1413 734 L 1415 732 L 1417 727 L 1420 724 L 1420 722 L 1423 719 L 1425 714 L 1428 711 L 1428 709 L 1431 706 L 1432 704 L 1432 702 L 1436 698 L 1437 695 L 1440 692 L 1440 690 L 1441 688 L 1444 685 L 1444 683 L 1447 680 L 1448 677 L 1451 674 L 1453 669 L 1456 666 L 1457 663 L 1460 660 L 1460 658 L 1463 655 L 1464 652 L 1467 649 L 1468 646 L 1469 644 L 1472 641 L 1472 639 L 1475 636 L 1476 633 L 1480 629 L 1481 625 L 1484 622 L 1485 619 L 1488 616 L 1488 614 L 1491 611 L 1492 608 L 1495 605 L 1496 603 L 1496 601 L 1500 597 L 1500 595 L 1503 592 L 1505 587 L 1508 584 L 1508 582 L 1511 579 L 1513 574 L 1516 571 L 1516 569 L 1520 565 L 1520 563 L 1521 561 L 1524 558 L 1525 555 L 1527 553 L 1529 548 L 1532 545 L 1532 543 L 1533 541 L 1536 538 L 1537 535 L 1540 532 L 1540 530 L 1542 527 L 1544 525 L 1545 522 L 1547 520 L 1548 517 L 1551 514 L 1552 512 L 1552 510 L 1556 506 L 1556 504 L 1559 501 L 1560 498 L 1561 496 L 1564 493 L 1564 491 L 1567 488 L 1568 485 L 1571 482 L 1572 480 L 1572 478 L 1575 475 L 1576 472 L 1579 469 L 1580 467 L 1581 464 L 1584 461 L 1584 459 L 1587 456 L 1589 451 L 1592 448 L 1592 446 L 1595 443 L 1596 440 L 1599 437 L 1600 434 L 1601 432 L 1604 429 L 1604 427 L 1607 424 L 1609 419 L 1612 416 L 1612 414 L 1615 411 L 1617 406 L 1620 403 L 1620 401 L 1624 397 L 1624 395 L 1625 393 L 1628 390 L 1628 388 L 1631 385 L 1633 380 L 1636 377 L 1636 375 L 1637 373 L 1640 370 L 1640 368 L 1643 365 L 1645 360 L 1648 357 L 1648 355 L 1651 352 L 1653 347 L 1656 344 L 1656 342 L 1659 339 L 1660 336 L 1663 333 L 1665 328 L 1668 325 L 1668 323 L 1671 320 L 1672 317 L 1676 313 L 1676 311 L 1677 309 L 1680 306 L 1681 303 L 1684 300 L 1684 298 L 1687 295 L 1688 292 L 1691 289 L 1692 286 L 1693 284 L 1696 281 L 1697 278 L 1699 275 L 1700 273 L 1704 269 L 1705 265 L 1708 262 L 1709 259 L 1712 256 L 1712 254 L 1715 251 L 1716 248 L 1719 245 L 1720 242 L 1721 240 L 1724 237 L 1724 235 L 1727 232 L 1728 230 L 1729 227 L 1732 224 L 1732 222 L 1735 219 L 1736 216 L 1739 213 L 1740 211 L 1740 209 L 1744 205 L 1744 203 L 1745 201 L 1748 198 L 1749 195 L 1752 192 L 1752 190 L 1755 187 L 1756 184 L 1757 182 L 1760 179 L 1760 177 L 1764 173 L 1764 171 L 1767 168 L 1768 166 L 1769 163 L 1772 160 L 1772 158 L 1775 155 L 1776 152 L 1779 149 L 1780 146 L 1781 144 L 1784 141 L 1784 139 L 1787 136 L 1788 133 L 1789 131 L 1792 128 L 1792 126 L 1795 123 L 1796 120 L 1799 117 L 1801 112 L 1804 109 L 1804 107 L 1807 104 L 1808 101 L 1811 98 L 1812 96 L 1812 94 L 1816 90 L 1816 88 L 1819 85 L 1821 80 L 1824 77 L 1825 74 L 1827 72 L 1828 69 L 1832 65 L 1832 63 L 1833 61 L 1836 58 L 1837 55 L 1840 52 L 1840 50 L 1844 46 L 1845 43 L 1848 40 L 1849 38 L 1851 36 L 1852 33 L 1856 29 L 1856 27 L 1857 25 L 1860 22 L 1860 20 L 1863 17 L 1864 14 L 1865 11 L 1866 8 L 1865 4 L 1863 3 Z M 534 3 L 517 4 L 508 6 L 499 7 L 482 7 L 477 8 L 472 10 L 467 11 L 458 11 L 454 12 L 449 14 L 446 15 L 439 15 L 436 16 L 433 18 L 429 19 L 425 19 L 422 20 L 419 21 L 416 23 L 411 23 L 404 27 L 400 27 L 397 28 L 395 30 L 393 31 L 390 31 L 387 32 L 385 34 L 383 35 L 380 35 L 378 36 L 376 38 L 374 38 L 370 39 L 367 42 L 365 43 L 362 43 L 360 45 L 356 47 L 354 47 L 352 48 L 350 50 L 348 51 L 346 51 L 344 52 L 342 54 L 340 55 L 338 55 L 335 58 L 333 59 L 331 59 L 328 62 L 325 63 L 321 67 L 319 67 L 314 71 L 309 75 L 305 79 L 301 82 L 298 83 L 293 87 L 287 92 L 283 95 L 280 98 L 274 103 L 254 123 L 250 128 L 248 130 L 247 133 L 243 137 L 239 142 L 238 144 L 236 146 L 235 149 L 232 152 L 231 154 L 230 157 L 227 160 L 226 163 L 223 166 L 223 168 L 222 170 L 219 173 L 219 175 L 216 178 L 215 180 L 215 182 L 212 185 L 211 187 L 211 189 L 210 191 L 207 194 L 207 197 L 206 199 L 204 201 L 203 203 L 203 206 L 202 208 L 200 210 L 199 213 L 199 216 L 195 223 L 195 227 L 194 230 L 191 235 L 191 241 L 190 244 L 188 246 L 187 250 L 187 256 L 186 260 L 184 263 L 183 268 L 183 278 L 182 282 L 180 288 L 179 296 L 179 365 L 180 373 L 182 378 L 183 383 L 183 393 L 184 398 L 186 402 L 187 405 L 187 413 L 188 417 L 190 419 L 191 422 L 191 429 L 194 434 L 195 437 L 195 441 L 196 444 L 198 446 L 199 449 L 199 453 L 200 455 L 202 457 L 203 459 L 203 463 L 204 465 L 206 467 L 206 469 L 207 473 L 209 476 L 211 478 L 211 481 L 212 483 L 214 485 L 215 487 L 215 489 L 216 491 L 218 493 L 219 495 L 219 497 L 220 499 L 223 502 L 223 505 L 227 509 L 227 511 L 230 514 L 232 519 L 235 522 L 236 525 L 238 527 L 239 529 L 242 532 L 243 535 L 247 539 L 247 541 L 251 546 L 255 550 L 259 555 L 260 558 L 262 560 L 267 566 L 271 570 L 274 574 L 279 579 L 282 583 L 304 605 L 308 608 L 313 612 L 315 615 L 321 620 L 327 625 L 331 628 L 336 632 L 341 636 L 346 640 L 348 641 L 350 643 L 353 644 L 357 648 L 362 652 L 364 652 L 368 655 L 371 657 L 375 660 L 378 663 L 381 664 L 385 668 L 388 669 L 391 672 L 395 675 L 398 677 L 402 680 L 405 681 L 408 684 L 412 687 L 415 689 L 419 692 L 421 692 L 425 696 L 428 697 L 431 700 L 433 700 L 435 701 L 438 704 L 440 704 L 443 707 L 448 709 L 451 712 L 453 712 L 456 715 L 461 717 L 464 720 L 467 721 L 470 724 L 472 724 L 474 725 L 477 728 L 480 729 L 482 731 L 487 733 L 490 736 L 492 736 L 495 739 L 500 741 L 503 744 L 505 744 L 508 747 L 513 749 L 516 752 L 518 752 L 522 756 L 524 756 L 526 757 L 529 760 L 532 761 L 534 763 L 539 765 L 542 768 L 544 768 L 547 771 L 552 773 L 555 776 L 557 776 L 560 779 L 565 781 L 568 784 L 570 784 L 574 788 L 576 788 L 578 789 L 580 791 L 583 792 L 586 795 L 591 797 L 594 800 L 596 800 L 599 803 L 604 805 L 606 807 L 611 809 L 614 812 L 617 813 L 620 816 L 623 817 L 626 820 L 628 820 L 631 823 L 634 824 L 638 828 L 640 828 L 643 831 L 648 833 L 651 836 L 653 836 L 655 837 L 658 840 L 660 840 L 663 843 L 668 845 L 671 848 L 673 848 L 676 851 L 679 852 L 682 855 L 685 856 L 687 857 L 690 860 L 692 860 L 695 863 L 698 864 L 702 868 L 704 868 L 707 871 L 710 872 L 714 876 L 716 876 L 720 879 L 722 881 L 726 884 L 728 885 L 730 887 L 733 888 L 737 892 L 742 896 L 744 896 L 749 900 L 754 904 L 759 908 L 764 912 L 769 916 L 778 924 L 796 943 L 803 950 L 807 955 L 808 958 L 810 960 L 812 963 L 819 970 L 823 975 L 827 980 L 832 986 L 836 991 L 839 995 L 839 997 L 843 1001 L 844 1004 L 846 1006 L 848 1010 L 848 1012 L 851 1015 L 851 1018 L 852 1020 L 854 1022 L 855 1024 L 855 1028 L 859 1035 L 859 1040 L 860 1043 L 862 1046 L 863 1049 L 864 1056 L 865 1062 L 866 1070 L 866 1078 L 867 1087 L 868 1089 L 872 1088 L 872 1086 L 875 1083 L 877 1078 L 879 1076 L 881 1071 L 883 1069 L 885 1064 L 888 1061 L 888 1059 L 889 1057 L 892 1054 L 892 1052 L 893 1050 L 895 1049 L 896 1046 L 897 1044 L 900 1041 L 900 1039 L 901 1037 L 904 1034 L 905 1031 L 908 1028 L 908 1026 L 909 1024 L 912 1021 L 912 1019 L 915 1016 L 917 1011 L 920 1008 L 920 1006 L 923 1003 L 925 998 L 927 996 L 929 991 L 932 988 L 932 986 L 935 983 L 937 978 L 939 976 L 940 973 L 943 970 L 944 968 L 944 966 L 947 963 L 948 960 L 951 957 L 952 955 L 952 953 L 956 949 L 956 947 L 957 945 L 960 942 L 961 939 L 964 936 L 964 934 L 966 932 L 968 929 L 968 927 L 971 924 L 972 921 L 975 918 L 976 916 L 976 914 L 979 911 L 981 906 L 983 904 L 985 899 L 987 897 L 989 892 L 992 889 L 992 886 L 994 884 L 996 881 L 996 879 L 997 877 L 999 875 L 1000 873 L 1000 870 L 1003 865 L 1004 862 L 1004 854 L 1003 851 L 1000 846 L 1000 842 L 999 840 L 997 838 L 997 836 L 996 833 L 995 831 L 993 829 L 992 827 L 992 824 L 991 822 L 989 820 L 987 815 L 985 813 L 984 811 L 984 809 L 981 806 L 980 804 L 980 802 L 976 798 L 975 795 L 972 792 L 972 790 L 968 785 L 964 780 L 960 776 L 956 770 L 953 768 L 943 756 L 940 754 L 925 739 L 923 736 L 919 732 L 907 722 L 905 719 L 899 715 L 894 711 L 890 707 L 885 703 L 880 699 L 877 698 L 873 695 L 869 691 L 864 687 L 862 687 L 858 683 L 853 679 L 851 679 L 847 675 L 844 674 L 841 671 L 839 670 L 837 668 L 834 667 L 831 664 L 828 662 L 824 659 L 822 659 L 818 655 L 815 654 L 812 651 L 810 651 L 806 647 L 803 646 L 800 643 L 798 643 L 794 639 L 791 638 L 788 635 L 785 634 L 782 631 L 778 628 L 775 627 L 772 624 L 769 623 L 765 619 L 763 619 L 759 616 L 757 614 L 753 611 L 751 611 L 749 610 L 746 607 L 743 606 L 741 604 L 739 603 L 737 603 L 735 602 L 732 599 L 730 599 L 728 598 L 725 595 L 722 595 L 719 592 L 714 590 L 712 588 L 707 586 L 704 583 L 702 583 L 699 580 L 694 578 L 692 576 L 687 574 L 684 571 L 682 571 L 679 568 L 674 566 L 672 564 L 667 562 L 664 559 L 662 559 L 659 556 L 654 554 L 651 551 L 649 551 L 646 548 L 644 547 L 642 547 L 639 544 L 636 543 L 633 540 L 628 538 L 625 535 L 623 535 L 620 532 L 615 530 L 612 527 L 610 527 L 607 524 L 602 522 L 599 519 L 596 518 L 593 515 L 591 515 L 589 514 L 586 511 L 583 510 L 580 507 L 578 507 L 575 504 L 572 503 L 569 500 L 564 498 L 561 495 L 558 494 L 555 491 L 552 490 L 549 487 L 547 487 L 543 483 L 540 482 L 537 479 L 534 478 L 530 475 L 526 472 L 523 470 L 519 467 L 516 464 L 512 462 L 508 459 L 505 456 L 502 455 L 497 451 L 493 447 L 491 447 L 487 444 L 483 440 L 479 438 L 475 435 L 471 432 L 467 428 L 461 423 L 455 419 L 450 415 L 416 381 L 414 379 L 412 377 L 408 372 L 404 367 L 400 362 L 396 357 L 393 353 L 392 350 L 389 347 L 387 342 L 384 339 L 384 337 L 381 334 L 380 332 L 380 330 L 379 328 L 376 325 L 376 322 L 375 320 L 372 317 L 372 313 L 371 311 L 369 309 L 368 307 L 368 304 L 367 301 L 365 299 L 364 296 L 364 291 L 363 288 L 361 285 L 360 281 L 360 274 L 359 269 L 357 264 L 356 259 L 356 204 L 357 199 L 359 194 L 360 190 L 360 182 L 361 179 L 363 176 L 364 173 L 364 167 L 367 162 L 368 159 L 368 155 L 369 153 L 371 151 L 372 149 L 372 146 L 373 144 L 375 142 L 376 140 L 376 138 L 377 136 L 380 133 L 380 131 L 383 127 L 385 124 L 388 120 L 392 116 L 392 114 L 396 109 L 400 105 L 401 102 L 404 100 L 407 96 L 411 93 L 414 91 L 418 88 L 422 85 L 428 81 L 430 79 L 434 76 L 436 76 L 439 73 L 444 71 L 447 68 L 449 68 L 451 67 L 453 65 L 455 64 L 458 64 L 460 63 L 462 61 L 464 60 L 467 60 L 474 56 L 478 56 L 481 55 L 484 53 L 487 52 L 493 52 L 497 51 L 501 49 L 504 48 L 515 48 L 523 47 L 530 45 L 544 44 L 549 44 L 568 45 L 575 46 L 584 48 L 596 48 L 600 49 L 604 51 L 609 52 L 616 52 L 619 53 L 622 55 L 626 56 L 632 56 L 637 59 L 640 60 L 645 60 L 652 64 L 656 64 L 663 68 L 666 68 L 668 69 L 670 71 L 672 71 L 675 72 L 677 73 L 679 75 L 684 77 L 686 79 L 688 80 L 690 80 L 692 81 L 695 84 L 697 84 L 700 86 L 702 88 L 704 88 L 707 91 L 712 93 L 715 96 L 717 96 L 720 99 L 723 100 L 726 103 L 729 104 L 733 107 L 739 112 L 744 117 L 746 119 L 748 121 L 750 123 L 752 125 L 754 127 L 763 137 L 766 139 L 772 146 L 779 154 L 782 158 L 783 161 L 787 165 L 791 170 L 791 172 L 794 176 L 796 178 L 799 182 L 799 185 L 803 189 L 803 191 L 804 193 L 806 195 L 807 197 L 807 199 L 808 201 L 811 204 L 811 208 L 812 210 L 814 212 L 815 214 L 815 220 L 816 222 L 818 223 L 820 222 L 824 218 L 824 214 L 825 212 L 827 210 L 828 208 L 828 204 L 829 201 L 831 199 L 832 197 L 832 192 L 833 190 L 835 188 L 836 185 L 836 182 L 840 175 L 840 173 L 841 171 L 843 169 L 843 167 L 844 164 L 845 162 L 847 160 L 848 158 L 848 156 L 851 153 L 852 151 L 852 149 L 853 147 L 856 144 L 856 142 L 857 140 L 860 137 L 860 135 L 861 133 L 864 130 L 865 127 L 868 124 L 868 122 L 871 119 L 872 116 L 875 113 L 876 110 L 879 106 L 881 103 L 884 100 L 885 98 L 887 96 L 888 93 L 892 88 L 896 83 L 899 79 L 904 73 L 909 67 L 912 65 L 916 59 L 939 36 L 943 33 L 947 29 L 950 27 L 954 24 L 957 23 L 960 20 L 963 19 L 966 16 L 968 16 L 971 13 L 974 12 L 979 7 L 979 4 L 977 3 Z "/>
</svg>